<svg xmlns="http://www.w3.org/2000/svg" width="1024" height="1024" viewBox="0 0 1024 1024"><path fill="#fff" d="M0 0h1024v1024H0z"/><path fill="#060505" d="M560.362 156.405c-2.2.278-7.412-.507-9.743-.855.641-.411 103.427-1.3 110.541-.112a143.14 143.14 0 0 1 99.469 47.018c18.709 20.664 28.701 43.967 33.107 71.406 2.067 12.876 1.749 26.229 1.761 39.253l-.025 47.815c-.033 13.167-.471 27.344 1.038 40.366a121.77 121.77 0 0 0 47.442 83.782c19.865 14.893 47.204 25.437 72.303 26.5.706 1.055-.064.81-1.364 1.438-6.118.142-14.158 1.929-20.163 3.181-24.28 5.06-47.271 17.343-64.572 35.389a124.4 124.4 0 0 0-33.006 67.174c-2.185 13.446-1.67 28.824-1.663 42.585l.027 45.004c.017 36.798-.494 62.291-20.66 95.706a132.3 132.3 0 0 1-32.344 36.564c-24.518 19.191-56.39 30.057-87.385 30.253-27.042.172-54.441.239-81.479.049-6.164.33-12.577-.156-18.698.129l.947-1.089c2.402.071 3.48-.295 5.509-.297 30.783-4.091 56.023-13.88 78.74-35.8a127.3 127.3 0 0 0 37.28-70.837c2.482-15.122 1.982-28.186 1.949-43.346l-.023-38.947c.034-32.978 1.009-53.825 16.106-84.504 22.284-45.281 74.212-79.581 125.052-81.209l-.345-1.039c-30.509-1.251-65.307-14.884-88.793-34.126-30.606-25.076-48.843-62.347-51.541-101.642-.643-9.368-.543-18.787-.527-28.201l.078-39.58c.022-15.752.459-32.43-2.47-47.93a128.85 128.85 0 0 0-27.009-57.678c-22.325-27.151-54.805-42.949-89.539-46.42"/><path fill="#949294" d="M560.362 156.405c-2.2.278-7.412-.507-9.743-.855.641-.411 103.427-1.3 110.541-.112-10.319.034-99.291-.351-101.04.535z"/><path fill="#525152" d="M555.895 867.961c2.402.071 3.48-.295 5.509-.297-.278.4-.221.269-.277.453.387.468 10.921.631 12.519.804-6.164.33-12.577-.156-18.698.129z"/><path fill="#1c1a1b" d="M823.302 511.943c.596.011 4.981.179 5.317.458l-.007.096c-.864.603-3.07.568-4.077.554z"/><path fill="#777373" d="m821.636 512.047 1.666-.104 1.233 1.108-2.093-.117z"/><path fill="#b9bbb9" d="m820.163 511.982 1.473.065.806.887-1.934.087z"/><path fill="#060505" d="M445.298 155.082c3.744-.47 27.268-.657 29.284.51l.002.181c-.561.528-1.336.274-1.984.099-1.491.03-2.734.106-4.226.211-.569.37-.56.286-1.336.262q-1.533.103-3.068.183c-32.407 2.328-66.282 19.528-87.461 44.144a127 127 0 0 0-28.767 60.426c-3.027 17.13-1.679 32.703-1.958 49.811-.342 20.939 1.126 44.586-.855 65.283-3.843 40.133-22.391 77.59-54.255 102.845a155.5 155.5 0 0 1-84.808 32.869c-.761.059-.497.042-1.366.052l-.486 1.021a148.86 148.86 0 0 1 103.201 47.918 151.2 151.2 0 0 1 36.796 78.304c1.93 13.094 1.685 25.405 1.726 38.565l.109 43.881c.002 11.154-.347 21.358.893 32.969 6.499 60.857 54.864 107.517 115.664 112.932l.451.014q.628.525 1.239 1.069c-2.831.023-5.869-.035-8.659.293-7.112-.301-16.426.028-23.748.043l-45.039.006c-9.986-.002-19.553.108-29.516-.774a140.7 140.7 0 0 1-79.17-33.108 137.46 137.46 0 0 1-47.565-91.548c-1.219-11.758-.929-25.055-.968-36.989l-.107-47.959c-.04-39.818-1.642-67.005-28.745-100.057-22.772-27.77-56.457-42.85-92.015-45.85l.134-.822.537-.327c25.141-1.066 56.28-13.873 75.55-30.054a124.25 124.25 0 0 0 43.33-78.429c1.699-13.25 1.289-27.301 1.265-40.689l-.049-47.427c-.004-9.773-.253-20.987.56-30.598a137.6 137.6 0 0 1 35.573-82.473 137.7 137.7 0 0 1 35.908-28.288c48.324-26.953 91.53-15.763 143.929-18.499"/><path fill="#ebe9ec" d="M445.298 155.082c3.744-.47 27.268-.657 29.284.51l.002.181c-.561.528-1.336.274-1.984.099-1.491.03-2.734.106-4.226.211-.569.37-.56.286-1.336.262q-1.533.103-3.068.183l1.167-1.172c-4.788.097-15.434.126-19.839-.274"/><path fill="#525152" d="M465.137 155.356c2.799.009 4.714.169 7.463.516-1.491.03-2.734.106-4.226.211-.569.37-.56.286-1.336.262q-1.533.103-3.068.183z"/><path fill="#949294" d="M467.038 156.345c.621-.363.587-.316 1.336-.262-.569.37-.56.286-1.336.262"/><path fill="#1c1a1b" d="M201.01 513.023c-6.737 1.249-7.692-.798-.001-.625z"/><path fill="#b9bbb9" d="M201.009 512.398a55 55 0 0 1 3.491-.44l-.486 1.021a60 60 0 0 0-3.004.044z"/><path fill="#1c1a1b" d="m509.112 385.258 8.321-.097c-.384 38.241-.363 76.486.063 114.727 7.821-9.149 21.202-21.432 30.244-30.392l50.389-50.543 7.11 7.066c-15.422 13.758-34.07 33.884-48.866 48.734l-19.77 19.833c-3.375 3.394-9.012 8.771-11.669 12.472 37.187-.784 76.29-.119 113.566-.027l.006 9.866-113.792-.055c3.643 4.954 19.504 20.507 24.597 25.667l55.624 55.827c-2.199 2.278-4.439 4.787-6.6 7.125-5.885-5.664-11.745-12.045-17.609-17.853l-63.218-63.117a3716 3716 0 0 0-.118 71.919c.025 4.494.458 41.22-.443 42.9l-1.322.18-8.124-.051a6298 6298 0 0 0-.037-69.685c-.039-14.602.272-31.188-.381-45.624-25.958 27.207-54.421 53.629-80.663 81.14-2.705-2.825-4.482-4.46-7.469-6.998 9.455-9.021 18.098-18.304 27.316-27.505l54.087-53.838c-37.205-.133-77.465.826-114.332-.245l-.002-9.683c37.747.101 75.777-.632 113.476.144-24.075-27.123-54.405-54.815-80.054-81.447 2.19-2.461 4.525-4.501 6.958-6.714 21.417 21.908 43.484 43.506 65.192 65.135 4.926 4.907 11.681 10.749 15.783 16.226-.319-33.775.347-67.716.153-101.504-.019-3.399-.54-10.186.378-13.146z"/><path fill="#b9bbb9" d="M462.854 867.562c2.831-.106 5.123.322 7.921.547.691-.123 2.845-.344 3.381.198l-.021.096c-1.69.979-16.233.752-18.701.521 2.79-.328 5.828-.27 8.659-.293q-.61-.544-1.239-1.069"/><path fill="#777373" d="M462.854 867.562c2.831-.106 5.123.322 7.921.547-2.127.372-4.534.653-6.682.522q-.61-.544-1.239-1.069"/><path fill="#949294" d="M101.431 512.417c-.992.109-.796.152-1.69-.022l-.041-.12c.082-1 5.779-.774 6.548-.748a66 66 0 0 1 2.984.012l-.537.327-.134.822a91 91 0 0 1-2.559-.11q-2.285-.105-4.571-.161"/><path fill="#ebe9ec" d="M101.431 512.417c-.992.109-.796.152-1.69-.022l-.041-.12c.082-1 5.779-.774 6.548-.748-1.64.345-3.185.581-4.817.89"/><path fill="#525152" d="M106.002 512.578c1.09-.352 1.561-.558 2.693-.712l-.134.822a91 91 0 0 1-2.559-.11"/><path fill="#777373" d="M916.255 511.578c.929-.106 6.887-.147 7.466.349l-.15-.072.185.197c-.131.244-7.822.886-8.865.964 1.3-.628 2.07-.383 1.364-1.438"/><path fill="#949294" d="M554.948 869.05c-.398-.008-3.099.068-3.215-.347.711-.659 3.251-.696 4.162-.742z"/></svg>