<?xml version="1.0" encoding="UTF-8"?>
<!--
  Fuente de diseño (export de Illustrator). NO se importa en el build.
  Arte en runtime: src/shared/components/Logo.jsx (componente <Logo>, currentColor)
  Favicon: public/favicon.svg
  Este archivo se conserva solo para futuras ediciones del logo.
-->
<svg xmlns="http://www.w3.org/2000/svg" id="Capa_2" data-name="Capa 2" viewBox="0 0 177.85 147.85"><defs><style>.cls-2{fill:#be163d}</style></defs><g id="Capa_1-2" data-name="Capa 1"><path d="M159.09 116.06c-.75-1.35-4.67 2.87-5.91 4.67-1.19 6.55-3.49 12.55-7.7 17.72 4.76 2.45 10.88.85 14.37-2.94 3.56-3.85 4.33-9.42 2.14-14.2l-2.92-5.25Zm-57.4-13.25c-.11-.06-.46-.05-.58 0-5.1 2.03-8.24 6.96-8 12.49.14 3.18 1.16 6.15 2.89 8.87 2.67 4.19 6.26 7.67 10.55 10.38-1.64-2.77-3.25-5.19-4.58-8.07-1.5-3.21-2.67-6.28-3.2-9.71-.69-4.72.23-9.4 2.88-13.34.1-.14.17-.55.04-.62M88.06 134.4c2.34-.36 4.58-.41 6.98-.38l10.11 1.11a53 53 0 0 0-12.43-4.35c-5.68-1.23-11.36-.92-15.84 2.91-3.34 2.86-4.43 7.49-2.68 7.35l2.11-.17c2.66-3.86 7.2-5.7 11.75-6.48Zm5.02-70.7c-1.55-1.31-1.97-2.2-3.1-3.58l-1.33-2.56-6.1 1.25c.51 2.87 1.81 4.18 3.5 6.48 1.69 2.18 3.3 4.17 5.36 6.27 0-2.56.37-5.46 1.67-7.86M81.91 42.96c-2.31-1.63-4.39-2.91-6.72-4.08-2.28-.9-4.59-1.68-7.06-2.08 1.54 1.46 3.16 2.32 4.85 3.26a46 46 0 0 0 8.93 2.9m-4.12-11.79c-.95-1.09-2.64-2.5-3.92-3.21 2.58 4.52 5.72 8.49 9.77 11.67-1.98-3.23-3.44-5.72-5.84-8.46Zm51.05-3 8.69-10.51 3.58-3.61c3.48-3.51 10.18-5.73 15.41-6.81l-3.24 5.85c-.84 1.02-1.86 2.06-3.02 2.76-6.42 2.47-14.72 7.6-19.34 12.92l11.62-7.01c4.3-2.29 8.67-4.04 13.43-5.29 2.86-3.03 5.43-6.17 7.9-9.54l3.77-6.07-.08-.65c-.01-.11-.38-.21-.5-.2-8.96.04-17.75 2.28-25.56 6.71-8.43 4.77-14.96 12.52-20.27 20.74l5.08.82c.86.22 1.72.28 2.53-.1Z" class="cls-2"/><path d="M111.15 38.93c-.74-1.35-2.21-1.8-3.67-1.51h-.02c-.12.01-.24 0-.35.03-1.24.25-2.34 1.25-2.71 2.64-.45 1.68.31 3.4 1.79 4.19.74.4 1.7.49 2.59.32.84-.13 1.63-.55 2.16-1.28-1.39.43-2.55.11-3.26-.89-.65-.92-.52-2.25.26-3.1.8-.88 2.02-1 3.21-.39Z" style="fill:none"/><path d="M177.32 18.26c-2.72-.65-5.37-1-8.21-1.07-7.04-.28-13.81.96-20.28 3.69-3.92 1.65-7.54 3.54-11.08 5.87l-6.94 4.57c-.66.44-1.49.44-2.21.23l-5.11-1.54c-7.14-2.16-15.7-2.83-21.77 1.93l-4.51 3.54c-2.3 1.87-4.63 3.51-7.16 5.04l-.4.75c-.09.17.23.65.43.73l2.86 1.3c-.9.83-2.01 1.46-2.97 2.03-.75 2.45 1.15 4.55 3.53 5.39l-1.11.4c-1.99.53-4.12.87-6.24 1.02-.51-1.4-1.42-2.72-3.03-3.04-.51-.1-1.57.2-1.48.74l.43 2.46-.69-.03c-.1-1.75-.68-3.16-2.19-3.41-.73-.12-1.41.2-1.98.82l1.65 1.42c1.42 1.65 2.24 3.54 2.7 5.8 3.29-.14 9.4-.95 11.28-2.83l.58-.58c.11-.11.52.08.68.15 1.19 1.11 2.63 1.53 4.29 1.45l2.3 1.59c.86.6 1.68.99 2.75 1.14 3.47.49 6.78.29 10.39.04-3.76 1.52-7.71 2.46-11.79 2.3-5.96 2.26-9.09 6.63-8.33 13.01-.03.39.14.76.51 1 2.9-2.72 5.99-4.78 9.99-5.54-4.88 2.81-9.14 6.97-11.36 12.37-.4-2.35-.89-4.29-2.28-5.98l-3.3-4.03c-2.88-3.51-5.74-6.4-6.83-10.99l-1.8-4.14c-.43-1.82-1.5-3.42-2.9-4.57-1.19-.88-2.4-1.75-3.91-1.58-1.27-1.23-2.15-2.04-3.89-1.97-.77.13-1.46.46-1.89 1.15.93.43 1.76.67 2.45 1.22 1.84 1.46 2.85 3.85 2.29 6.23l-1.01-2.08c-.6-1.39-1.76-2.77-3.26-3.42-1.49-.64-3.09-.85-4.04.6-.89 1.37-.82 3.34-.11 4.79l4.41 2.62c.73.66 1.47 1.21 2.28 1.68 2.44 1.42 4.25 3.39 5.35 6.01l4.26 10.23c1.39 3.33 3.12 6.32 5.39 9.12 2.36 2.92 5.26 5.22 8.71 6.66.73.31 1.5.37 2.27.19a69 69 0 0 0 11.56-3.81c3.02-1.29 5.6-2.96 8.42-4.8-3.69 4.81-8.72 7.47-14.26 9.45-.37.13-.14.79.04 1.06l4.21 4.3c6.98-5.22 16.53-5.3 24.11-1.63 6.03 2.91 9.92 9.38 11.39 16.16-1.47-2.42-2.88-4.85-4.88-7-3.92-4.22-8.92-7.11-14.61-8.08-3.13-.54-6.16-.43-9.17.46-5.45 1.6-9.41 5.99-10.42 11.6-.61 3.38-.2 6.69.92 9.95 2.39 6.94 6.84 12.82 11.48 18.72l-13.85-2.59c-6.68-.89-14.3-.46-19.45 4.01-2.93 2.54-4.03 6.77-2.07 6.73l13.46-.25 26.52.51 11.72.32c1.23.03 2.14-.99 1.98-2.2-.18-1.31-1.11-2.06-2.25-2.56-6.84-3-13.06-8.01-16.08-15.03-.06-.25.01-.26.24-.04 4.1 5.14 9.19 9.22 15.08 11.99 8.06 3.78 14.23-1.6 17.94-8.75 2.28-4.39 3.68-9.01 4.62-13.89 3.61-18.76-2.95-36.1-15.08-50.32l-7.47-8.75c-1.7.6-3.28 1.17-4.91 1.39 7.36-4.15 11.24-9.62 9.3-18.18l-2.05-.67c.91-.38 2.02-1 3.05-1.01l4.56-.05c12.79-.13 23.64-5.3 32.8-14.01 1.54-1.47 6.54-6.62 5.9-7.14l-.47-.38Zm-69.63 24.17c.71 1.01 1.87 1.32 3.26.89-.53.74-1.32 1.15-2.16 1.28-.89.18-1.84.08-2.59-.32a3.64 3.64 0 0 1-1.79-4.19c.37-1.38 1.47-2.39 2.71-2.64.11-.02.24-.01.35-.03h.02c1.46-.3 2.93.16 3.67 1.51-1.18-.61-2.4-.49-3.21.39-.78.86-.91 2.18-.26 3.1Zm49.71-11.94c-6.56 3.89-13.34 5.25-20.82 5.71 3.43-2.69 6.81-4.94 10.39-7.22 5.5-3.35 12.38-4.15 18.9-4.57-2.72 2.31-5.45 4.29-8.47 6.08M30.36 48c-5.07-1.04-9.68-2.79-13.8-5.69-4.15-2.83-7.25-6.63-9.2-11.22-.23-.53-.91-.96-1.39-.99-1.74-.1-2.89 2.72-3.47 4.79-3.11 11.04-3.49 24.23-.18 35.28.59 1.96 1.79 4.44 3.45 4.01.46-.12.98-.65 1.16-1.22.93-3.03 2.12-5.83 4.04-8.35 3.9-5.11 10.1-8.45 16.58-7.85-4.2 1.34-7.87 3.59-11.27 6.23-3.27 2.66-5.51 6.02-6.98 10.21 2.9-2.76 5.38-5.55 8.59-7.74 3.96-2.73 7.82-4.93 12.54-6.24-1.24-3.71-1.3-7.49-.07-11.2Zm29.69 4.31-26.84-3.87c-.42-.06-.72.21-.82.59-.77 3.04-.77 6.12-.03 9.18.06.25.4.6.6.66 4.23-.89 8.32-1.31 12.63-1.59l14.48-.39c-.4-1.61-.36-3.02-.03-4.59Zm26.7-15.28c-1.08-2.02-1.96-4.12-2.51-6.3-.16-1.4-.28-2.76.09-4.27 1.9 3.41 2.65 6.84 2.42 10.57" class="cls-2"/></g></svg>